<?xml version="1.0" encoding="utf-8"?>
<!-- Generator: Adobe Illustrator 17.1.0, SVG Export Plug-In . SVG Version: 6.00 Build 0)  -->
<!DOCTYPE svg PUBLIC "-//W3C//DTD SVG 1.1//EN" "http://www.w3.org/Graphics/SVG/1.1/DTD/svg11.dtd">
<svg version="1.1" id="Layer_1" xmlns="http://www.w3.org/2000/svg" xmlns:xlink="http://www.w3.org/1999/xlink" x="0px" y="0px"
	 viewBox="0 0 16 16" enable-background="new 0 0 16 16" xml:space="preserve">
<g id="editorial_-_trash_can">
	<g>
		<path fill="#FFFFFF" d="M5,6.5H4v6h1V6.5z M14.5,2H10V0.5C10,0.2,9.8,0,9.5,0h-4C5.2,0,5,0.2,5,0.5V2H0.5C0.2,2,0,2.2,0,2.5
			S0.2,3,0.5,3H1v12c0,0.6,0.4,1,1,1h11c0.6,0,1-0.4,1-1V3h0.5C14.8,3,15,2.8,15,2.5S14.8,2,14.5,2z M6,1h3v1H6V1z M13,14.5
			c0,0.3-0.2,0.5-0.5,0.5h-10C2.2,15,2,14.8,2,14.5V3h11V14.5z M8,5.5H7v7h1V5.5z M11,6.5h-1v6h1V6.5z"/>
	</g>
</g>
</svg>
